<?xml version="1.0" encoding="UTF-8" standalone="no"?>
<svg
   xmlns:dc="http://purl.org/dc/elements/1.1/"
   xmlns:cc="http://creativecommons.org/ns#"
   xmlns:rdf="http://www.w3.org/1999/02/22-rdf-syntax-ns#"
   xmlns:svg="http://www.w3.org/2000/svg"
   xmlns="http://www.w3.org/2000/svg"
   xmlns:sodipodi="http://sodipodi.sourceforge.net/DTD/sodipodi-0.dtd"
   xmlns:inkscape="http://www.inkscape.org/namespaces/inkscape"
   inkscape:version="1.0 (4035a4fb49, 2020-05-01)"
   sodipodi:docname="logo.svg"
   version="1.1"
   height="107"
   width="216"
   id="body_1">
  <metadata
     id="metadata25">
    <rdf:RDF>
      <cc:Work
         rdf:about="">
        <dc:format>image/svg+xml</dc:format>
        <dc:type
           rdf:resource="http://purl.org/dc/dcmitype/StillImage" />
        <dc:title></dc:title>
      </cc:Work>
    </rdf:RDF>
  </metadata>
  <defs
     id="defs23" />
  <sodipodi:namedview
     inkscape:current-layer="g18"
     inkscape:window-maximized="1"
     inkscape:window-y="-8"
     inkscape:window-x="-8"
     inkscape:cy="94.852804"
     inkscape:cx="237.32503"
     inkscape:zoom="1.8684005"
     showgrid="false"
     id="namedview21"
     inkscape:window-height="1017"
     inkscape:window-width="1920"
     inkscape:pageshadow="2"
     inkscape:pageopacity="0"
     guidetolerance="10"
     gridtolerance="10"
     objecttolerance="10"
     borderopacity="1"
     bordercolor="#666666"
     pagecolor="#ffffff" />
  <g
     id="g18"
     transform="matrix(0.4475761,0,0,0.51153319,-54.205605,-61.777955)">
    <path
       id="path2"
       fill-rule="nonzero"
       fill="#0088aa"
       stroke="none"
       d="M 36.92131,42.14435 H 107.5342 V 82.5878 H 36.92131 Z"
       transform="matrix(3.780952,0,0,3.781145,0,5.769569e-5)" />
    <path
       id="path4"
       fill-rule="nonzero"
       fill="#000000"
       stroke="none"
       d="m 63.31101,62.31882 c 0,-5.08829 4.23064,-9.21317 9.4494,-9.21317 5.21877,0 9.44941,4.12488 9.44941,9.21317 0,5.08829 -4.23064,9.21317 -9.44941,9.21317 -5.21876,0 -9.4494,-4.12488 -9.4494,-9.21317"
       transform="matrix(3.780952,0,0,3.781145,0,5.769569e-5)" />
    <path
       id="path6"
       fill-rule="nonzero"
       fill="#1c241f"
       stroke="none"
       d="m 40.44345,38.55357 h 7.9375 v 3.77977 h -7.9375 z"
       transform="matrix(3.780952,0,0,3.781145,0,5.769569e-5)" />
    <text
       id="text8"
       font-size="21.8472px"
       style="font-family:'Times New Roman';fill:#000000"
       y="67.545547"
       x="37.602901"
       transform="matrix(3.622885,0,0,3.946116,0,5.769569e-5)" />
    <text
       id="text10"
       font-size="21.8472px"
       style="font-family:'Times New Roman';fill:#000000"
       y="67.545547"
       x="37.602901"
       transform="matrix(3.622885,0,0,3.946116,0,5.769569e-5)">PR</text>
    <text
       id="text12"
       font-size="21.2925px"
       style="font-family:'Times New Roman';fill:#000000"
       y="63.497749"
       x="94.022636"
       transform="matrix(3.379148,0,0,4.23075,0,5.769569e-5)" />
    <text
       id="text14"
       font-size="21.2925px"
       style="font-family:'Times New Roman';fill:#000000"
       y="63.497749"
       x="94.022636"
       transform="matrix(3.379148,0,0,4.23075,0,5.769569e-5)">DUJEKT</text>
    <path
       id="path16"
       fill-rule="nonzero"
       fill="#e6e6e6"
       stroke="none"
       d="m 64.63393,62.36607 c 0,-4.27938 3.68065,-7.74851 8.22097,-7.74851 4.54033,0 8.22098,3.46913 8.22098,7.74851 0,4.27938 -3.68065,7.74851 -8.22098,7.74851 -4.54032,0 -8.22097,-3.46913 -8.22097,-7.74851"
       transform="matrix(3.780952,0,0,3.781145,0,5.769569e-5)" />
  </g>
</svg>
